<svg xmlns="http://www.w3.org/2000/svg" width="749" height="610" viewBox="0 0 749 610"><g fill="none" transform="translate(-4)"><rect width="47.68" height="410.07" x="167.782" y="140.709" fill="#183963" rx="12" transform="matrix(.48160072 .87639075 -.87639075 .48160072 402.343592 11.298021)"/><path fill="#183963" d="m508.8 9.13 13.86 25.22-165.66 91.02-13.86-25.22c-3.85-7-2.54-15.17 2.89-18.16l145.87-80.15c5.46-2.99 13.1.29 16.9 7.29z"/><path fill="#1a818b" d="m401.485926 89.664884h189v184.67h-189z" transform="matrix(.87639075 -.48160072 .48160072 .87639075 -26.342827 261.36405)"/><g fill="#183963"><path d="m645.66 275.11-145.86 80.15c-5.44 3-13-.29-16.88-7.29l-11-20.1 165.64-91 11 20.1c3.84 7.03 2.54 15.15-2.9 18.14z"/><rect width="274.22" height="53.71" x="454.94" y="465.09" rx="12"/><rect width="320.49" height="74.92" x="431.81" y="534.35" rx="12"/></g></g></svg>